<?xml version="1.0" standalone="no"?>
<!DOCTYPE svg PUBLIC "-//W3C//DTD SVG 1.1//EN" "http://www.w3.org/Graphics/SVG/1.1/DTD/svg11.dtd" >
<!--
2013-9-30: Created.
-->
<svg>
<metadata>
Created by iconfont
</metadata>
<defs>

<font id="iconfont" horiz-adv-x="1024" >
  <font-face
    font-family="iconfont"
    font-weight="500"
    font-stretch="normal"
    units-per-em="1024"
    ascent="896"
    descent="-128"
  />
    <missing-glyph />
    
    <glyph glyph-name="biaoqian" unicode="&#58926;" d="M715.034 96.22c-5.296 0-8.827 1.766-12.358 5.297-7.062 7.062-7.062 17.655 0 24.717l192.441 183.614-326.62 338.98c-7.063 7.062-7.063 17.655 0 24.717 7.062 7.062 17.655 7.062 24.717 0l340.745-349.573c3.53-3.53 5.296-7.062 5.296-12.358s-1.765-8.828-5.296-12.359L727.393 101.517c-3.53-3.53-8.827-5.296-12.359-5.296zM515.531 634.703h-240.11V399.89l312.496-312.497L815.67 309.848 515.531 634.703zM425.49 447.56c-21.187 0-40.607 17.655-40.607 40.607s17.655 40.606 40.607 40.606c21.186 0 40.607-17.655 40.607-40.606s-19.421-40.607-40.607-40.607z"  horiz-adv-x="1129" />

    
    <glyph glyph-name="chakan" unicode="&#58932;" d="M1022.88 391.168c-0.32 1.344-0.128 2.784-0.64 4.096-0.192 0.544-0.672 0.832-0.864 1.344-0.32 0.768-0.256 1.632-0.672 2.368-92.8 177.632-294.816 304.896-507.936 304.896-213.152 0-415.136-127.072-508-304.672-0.416-0.736-0.352-1.6-0.672-2.368-0.224-0.512-0.672-0.8-0.864-1.344-0.512-1.312-0.32-2.752-0.64-4.096-0.576-2.4-1.12-4.704-1.12-7.168s0.576-4.736 1.12-7.168c0.32-1.344 0.128-2.784 0.64-4.096 0.192-0.544 0.672-0.832 0.864-1.344 0.32-0.768 0.256-1.632 0.672-2.368 92.832-177.632 294.848-304.896 508-304.896 213.12 0 415.136 127.072 507.936 304.672 0.448 0.736 0.384 1.6 0.672 2.368 0.192 0.512 0.672 0.8 0.864 1.344 0.512 1.312 0.32 2.752 0.64 4.096 0.544 2.432 1.12 4.736 1.12 7.168s-0.576 4.768-1.12 7.168zM512.736 128.384c-179.68 0-355.584 102.112-443.232 255.84 88.128 153.92 263.776 255.68 443.232 255.68 179.616 0 355.552-102.144 443.2-255.84-88.128-153.952-263.744-255.68-443.2-255.68zM512.736 512.032l-0.192-0.032A127.936 127.936 0 0 1 384.8 384.128a16 16 0 0 1 31.968 0 96.064 96.064 0 0 0 95.968 95.904v0.032a15.968 15.968 0 0 1 0 31.968zM512 608a224 224 0 1 1 0-448 224 224 0 0 1 0 448z m0-416c-105.888 0-192 86.112-192 192s86.112 192 192 192 192-86.112 192-192-86.112-192-192-192z"  horiz-adv-x="1024" />

    
    <glyph glyph-name="mingxitiaozhang" unicode="&#58919;" d="M816.64 355.84V793.6H204.8v-716.8h279.04v-94.72H174.08c-35.84 0-64 30.72-64 66.56v768c0 35.84 28.16 66.56 64 66.56h668.16c35.84 0 64-30.72 64-66.56v-512c-12.8 17.92-40.96 35.84-89.6 51.2z m-199.68-422.4l-30.72-53.76-23.04 79.36-23.04 79.36 84.48 23.04 84.48 23.04-38.4-71.68c10.24-5.12 20.48-10.24 33.28-15.36 92.16-33.28 194.56 7.68 250.88 64C947.2-40.96 832-145.92 693.76-102.4c-20.48 7.68-58.88 25.6-76.8 35.84z m230.4 299.52l33.28 53.76 20.48-79.36L921.6 128l-84.48-20.48-84.48-20.48 40.96 69.12-30.72 15.36c-89.6 35.84-194.56-2.56-253.44-58.88C519.68 215.04 640 314.88 775.68 268.8c15.36-7.68 56.32-25.6 71.68-35.84z m-512 414.72c-7.68 15.36-2.56 28.16 15.36 38.4 17.92 10.24 30.72 5.12 43.52-10.24l84.48-133.12 87.04 133.12c10.24 15.36 23.04 20.48 40.96 12.8s20.48-20.48 15.36-40.96l-87.04-130.56h71.68c7.68-5.12 10.24-12.8 10.24-23.04s-2.56-17.92-10.24-23.04h-92.16v-38.4h92.16c7.68-5.12 10.24-12.8 10.24-23.04s-2.56-17.92-10.24-23.04H512v-94.72c2.56-28.16-10.24-40.96-33.28-40.96-25.6 0-35.84 12.8-35.84 40.96v94.72h-92.16c-10.24 5.12-15.36 12.8-15.36 23.04s5.12 17.92 15.36 23.04h92.16v38.4h-92.16c-10.24 5.12-12.8 12.8-15.36 23.04 0 10.24 5.12 17.92 15.36 23.04h71.68l-87.04 130.56z"  horiz-adv-x="1024" />

    
    <glyph glyph-name="daoruwenjian" unicode="&#58916;" d="M512 73.6H214.4V694.4h326.4v-272h272V384h64v86.4l-288 288H150.4v-752H512v67.2z m60.8 611.2l230.4-230.4H572.8V684.8zM723.2 204.8H656l67.2 67.2 22.4 25.6-44.8 44.8-166.4-169.6 166.4-169.6 44.8 48-22.4 22.4-67.2 67.2h240v64z"  horiz-adv-x="1024" />

    
    <glyph glyph-name="dayin" unicode="&#58911;" d="M343.136 724.277h370.576v-92.187h45.195v92.467c0 25.536-20.354 46.718-45.933 46.718H342.757c-25.535 0-46.62-21.187-46.62-46.718v-92.467h47v92.187zM851.806 585.09H203.933c-25.535 0-46.99-20.096-46.99-45.631v-231.372c0-25.583 21.455-46.56 46.99-46.56h92.204V76.71c0-25.582 21.085-46.56 46.62-46.56h370.216c25.583 0 45.933 20.986 45.933 46.56V261.528h92.9c25.582 0 46.29 20.986 46.29 46.56v231.37c0 25.536-20.622 45.633-46.204 45.633h-0.086zM713.712 77.15H343.136V400.714h370.576V77.15z m91.815 369.76c-25.578 0-46.274 20.696-46.274 46.27 0 25.535 20.697 46.279 46.274 46.279 25.583 0 46.28-20.744 46.28-46.28 0-25.573-20.697-46.27-46.28-46.27zM388.328 353.714h186.193v-45.188H388.328v45.188zM388.328 261.528h278.384v-46.999H388.328v46.999zM388.328 169.337h278.384v-46.994H388.328v46.994z"  horiz-adv-x="1024" />

    
    <glyph glyph-name="xinzeng" unicode="&#58933;" d="M892.953 448.431H576.43V764.954c0 35.816-29.035 64.85-64.848 64.85-35.817 0-64.851-29.034-64.851-64.85v-316.523H130.208c-35.816 0-64.85-29.036-64.85-64.85s29.034-64.848 64.85-64.848h316.524V2.21c0-35.814 29.034-64.85 64.851-64.85 35.813 0 64.848 29.036 64.848 64.85V318.734h316.522c35.816 0 64.85 29.034 64.85 64.848s-29.034 64.85-64.85 64.85z"  horiz-adv-x="1024" />

    
    <glyph glyph-name="xuanze" unicode="&#58931;" d="M482.647032-47.044978H175.182365c-55.56694 0-100.659891 43.595953-100.659891 97.266895V723.412187c0 53.671942 45.092951 97.267895 100.659891 97.267895v-0.1h660.719284c55.46794 0 100.559891-43.694953 100.559891-97.266895v-391.963575h74.521919V723.313187c0 94.772897-78.611915 171.888814-175.17981 171.888814H175.181365C78.61247 895.102001 0.000555 818.086084 0.000555 723.312187v-673.18927c0-94.673897 78.512915-171.789814 175.18181-171.789814h307.464667v74.621919z m0 0M1008.489462 218.719734L473.270042 537.158389c-19.653979 11.671987-32.322965 2.892997-28.13297-19.553979l113.827877-616.027332c4.189995-22.445976 18.25598-25.537972 31.324966-6.882993 0 0 72.725921 104.249887 132.382857 167.898818l120.910869-180.069804c7.382992-10.973988 22.346976-13.866985 33.220964-6.284994l56.963938 39.405958c10.973988 7.581992 13.866985 22.745975 6.384993 33.819963l-120.711869 179.769805c76.516917 31.723966 184.5598 58.459937 184.5598 58.459937 22.045976 5.486994 24.041974 19.452979 4.487995 31.025966z"  horiz-adv-x="1024" />

    
    <glyph glyph-name="xiazai" unicode="&#58917;" d="M968.192-46.08H55.808c-16.896 0-30.72-13.824-30.72-30.72s13.824-30.72 30.72-30.72h912.384c16.896 0 30.72 13.824 30.72 30.72s-13.824 30.72-30.72 30.72zM254.464 190.976c25.6 0 51.2 4.096 77.312 12.288 16.384 5.12 25.6 22.016 20.48 38.4s-22.016 25.6-38.4 20.48c-20.48-6.144-39.424-9.216-58.88-9.216-103.936 0-188.928 84.992-188.928 188.928 0 50.688 19.968 97.792 55.808 133.632 35.84 35.328 82.432 54.784 132.608 54.784h4.096c2.56-0.512 5.12-0.512 7.68-0.512 13.824 0 26.112 8.704 29.696 22.016C323.584 747.008 412.672 813.568 512 813.568c111.616 0 207.872-83.456 223.232-194.048 2.048-16.384 16.384-27.648 32.768-26.624 6.144 0.512 12.288 1.024 18.432 1.024 94.208 0 170.496-76.288 170.496-170.496S880.64 252.928 786.432 252.928c-18.944 0-37.888 3.072-54.784 9.216-15.872 5.632-33.28-3.072-38.912-18.944-5.632-15.872 3.072-33.28 18.944-38.912C735.232 196.096 760.832 192 786.944 192c128 0 231.936 103.936 231.936 231.936 0 126.464-101.888 229.888-227.84 231.936C760.32 782.848 645.12 875.52 512.512 875.52c-118.784 0-225.28-74.24-269.312-184.32-62.464-2.56-120.832-28.16-165.376-72.704-47.616-47.104-73.728-110.08-73.728-177.152 0-138.24 112.128-250.368 250.368-250.368zM512.512 389.632c-16.896 0-30.72-13.824-30.72-30.72v-254.976l-57.344 57.344c-12.288 11.776-31.744 11.776-43.52 0-11.776-12.288-11.776-31.744 0-43.52l110.08-110.08c5.632-6.144 13.312-9.216 21.504-9.216s15.872 3.072 22.016 9.216l109.568 110.08c12.288 12.288 12.288 31.232 0 43.52-12.288 12.288-31.744 11.776-43.52 0l-57.344-57.344V358.912c0 16.896-13.824 30.72-30.72 30.72z"  horiz-adv-x="1024" />

    
    <glyph glyph-name="tongjitubiao" unicode="&#58918;" d="M121.573 106.775V718.657H64.14v-669.304h28.716v-0.011h867.002v57.432H121.573z m557.753 388.77H561.148v-330.234h118.178V495.545z m165.67 165.67H726.817V165.31h118.177V661.215z m-331.34-57.432H395.48V165.31h118.178V603.783zM345.779 390.622H227.601v-225.31h118.177v225.31z"  horiz-adv-x="1024" />

    
    <glyph glyph-name="xianshizhongzhi" unicode="&#58920;" d="M512 896C230.4 896 0 665.6 0 384s230.4-512 512-512 512 230.4 512 512S793.6 896 512 896zM102.4 384c0 225.28 184.32 409.6 409.6 409.6 92.16 0 179.2-30.72 250.88-87.04L189.44 133.12C133.12 204.8 102.4 291.84 102.4 384zM512-25.6c-92.16 0-179.2 30.72-250.88 87.04l573.44 573.44C890.88 563.2 921.6 476.16 921.6 384c0-225.28-184.32-409.6-409.6-409.6z"  horiz-adv-x="1024" />

    
    <glyph glyph-name="tuihui" unicode="&#58921;" d="M511.744-127.49c-69.065 0-136.132 13.494-199.2 40.28-60.97 25.788-115.743 62.67-162.62 109.746-47.076 46.977-83.958 101.65-109.745 162.719-26.687 63.169-40.18 130.135-40.18 199.2s13.593 136.133 40.18 199.202c25.787 60.67 62.669 115.542 109.745 162.519s101.65 83.958 162.62 109.545c63.068 26.687 130.135 40.28 199.2 40.28s136.132-13.493 199.2-40.28c60.97-25.787 115.743-62.569 162.62-109.545 47.076-46.977 83.958-101.65 109.745-162.72 26.687-63.168 40.18-130.135 40.18-199.2 0-92.654-25.087-183.409-72.464-262.57-8.695-14.492-27.286-19.09-41.679-10.494-14.393 8.696-18.99 27.286-10.495 41.78 41.68 69.664 63.769 149.625 63.869 231.184 0 60.87-11.895 119.84-35.383 175.413-22.689 53.773-55.272 101.849-96.652 143.328S740.93 776.86 687.257 799.55c-55.673 23.488-114.643 35.382-175.613 35.382S391.704 823.037 336.032 799.55c-53.574-22.689-101.75-55.272-143.13-96.652s-73.962-89.555-96.65-143.328c-23.49-55.573-35.383-114.643-35.383-175.413 0-60.87 11.894-119.84 35.382-175.413 22.689-53.773 55.273-101.849 96.652-143.328 41.38-41.38 89.755-73.963 143.428-96.652 55.573-23.588 114.643-35.383 175.613-35.383 90.855 0 178.411 26.887 253.274 77.762 13.893 9.395 32.784 5.897 42.279-7.996 9.395-13.893 5.897-32.884-7.996-42.28-85.158-57.87-184.608-88.355-287.757-88.355zM543.8 185.517H381.88c-16.79 0-30.384 13.593-30.384 30.385 0 16.791 13.593 30.385 30.385 30.385H543.8c28.185 0 54.672 10.894 74.462 30.684 19.69 19.79 30.585 46.177 30.585 74.163 0 28.286-10.795 54.573-30.585 74.363-19.69 19.69-45.877 30.485-73.663 30.485h-162.92c-16.79 0-30.384 13.593-30.384 30.385s13.593 30.385 30.385 30.385h162.819c44.178 0 85.657-17.092 116.742-48.376 31.084-31.184 48.376-72.764 48.376-117.342 0-44.278-17.192-85.957-48.376-117.241-31.285-31.085-72.964-48.276-117.442-48.276zM408.866 594.712V378.22L300.72 486.566z"  horiz-adv-x="1024" />

    
    <glyph glyph-name="queren" unicode="&#58922;" d="M512.004 824.21c59.426 0 117.057-11.666 171.299-34.598 52.446-22.135 99.508-53.942 139.99-94.324 40.48-40.481 72.188-87.544 94.323-139.99 22.933-54.24 34.599-111.872 34.599-171.298s-11.666-117.057-34.599-171.298c-22.135-52.446-53.942-99.509-94.324-139.99-40.481-40.481-87.543-72.189-139.99-94.324-54.24-22.932-111.872-34.598-171.298-34.598s-117.057 11.666-171.298 34.598c-52.446 22.135-99.508 53.942-139.99 94.324s-72.188 87.544-94.323 139.99C83.46 266.942 71.794 324.574 71.794 384s11.666 117.057 34.599 171.298c22.135 52.446 53.942 99.509 94.323 139.99s87.544 72.189 139.99 94.324C394.947 812.544 452.578 824.21 512.004 824.21m0 71.79c-282.771 0-512-229.228-512-512s229.229-512 512-512 512 229.228 512 512-229.228 512-512 512zM460.954 201.435c-9.472 0-18.645 3.789-25.426 10.47l-149.96 150.06c-14.059 14.058-14.059 36.792 0 50.75s36.792 14.06 50.751 0l124.635-124.634 267.915 267.915c14.059 14.059 36.792 14.059 50.751 0s14.06-36.792 0-50.751L486.38 212.004c-6.78-6.78-15.954-10.57-25.426-10.57z"  horiz-adv-x="1027" />

    
    <glyph glyph-name="jihua" unicode="&#58923;" d="M665 815v-105H369V815h296m20 80H349c-33.1 0-60-26.9-60-60v-145c0-33.1 26.9-60 60-60h336c33.1 0 60 26.9 60 60V835c0 33.1-26.9 60-60 60zM298.5 207c-37.2 0-67.5 30.3-67.5 67.5s30.3 67.5 67.5 67.5 67.5-30.3 67.5-67.5-30.3-67.5-67.5-67.5z m0 80c-6.9 0-12.5-5.6-12.5-12.5s5.6-12.5 12.5-12.5 12.5 5.6 12.5 12.5-5.6 12.5-12.5 12.5z m0-275c-37.2 0-67.5 30.3-67.5 67.5s30.3 67.5 67.5 67.5 67.5-30.3 67.5-67.5-30.3-67.5-67.5-67.5z m0 80c-6.9 0-12.5-5.6-12.5-12.5s5.6-12.5 12.5-12.5 12.5 5.6 12.5 12.5-5.6 12.5-12.5 12.5zM642 235H477c-22.1 0-40 17.9-40 40s17.9 40 40 40h165c22.1 0 40-17.9 40-40s-17.9-40-40-40z m120-198H477c-22.1 0-40 17.9-40 40s17.9 40 40 40h285c22.1 0 40-17.9 40-40s-17.9-40-40-40z m0 390H477c-22.1 0-40 17.9-40 40s17.9 40 40 40h285c22.1 0 40-17.9 40-40s-17.9-40-40-40zM863 719v-767H171V719h118v-9c0-44.2 35.8-80 80-80h296c44.2 0 80 35.8 80 80v9h118m20 80H665v-89H369V799H151c-33.1 0-60-26.9-60-60v-807c0-33.1 26.9-60 60-60h732c33.1 0 60 26.9 60 60V739c0 33.1-26.9 60-60 60zM298.8 402.4c-10.2 0-20.4 3.9-28.2 11.6l-35.8 35.6c-15.7 15.6-15.8 40.9-0.2 56.6 15.6 15.7 40.9 15.8 56.6 0.2l7.6-7.6 52 51.6c15.7 15.6 41 15.5 56.6-0.2 15.6-15.7 15.5-41-0.2-56.6L327 414c-7.8-7.7-18-11.6-28.2-11.6z"  horiz-adv-x="1024" />

    
    <glyph glyph-name="shangchuan" unicode="&#58924;" d="M567.467 261.675v-234.667a21.333 21.333 0 0 0-21.334-21.333h-42.666a21.333 21.333 0 0 0-21.334 21.333V261.675h-68.266a8.533 8.533 0 0 0-6.827 13.653l110.933 147.925a8.533 8.533 0 0 0 13.654 0L642.56 275.328a8.533 8.533 0 0 0-6.827-13.653h-68.266zM768 170.667a128 128 0 0 1 38.613 250.112l-39.85 12.586-14.507 39.254a256.128 256.128 0 0 1-480.555 0l-14.464-39.254-39.85-12.586A128.085 128.085 0 0 1 256 170.667a42.667 42.667 0 0 0 0-85.334 213.333 213.333 0 0 0-64.341 416.811 341.461 341.461 0 0 0 640.682 0A213.419 213.419 0 0 0 768 85.334a42.667 42.667 0 0 0 0 85.333z"  horiz-adv-x="1024" />

    
    <glyph glyph-name="shoudong" unicode="&#58925;" d="M821.575 498.397h2.87c53.095 0 96.134-43.1 96.134-96.266v-285.903c0-134.882-109.208-244.233-243.922-244.233H477.68a243.82 243.82 0 0 0-197.144 100.418L85.832 239.996a94.918 94.918 0 0 0 5.761 118.836l9.05 10.199c33.846 38.12 92.145 41.552 130.214 7.666a89.49 89.49 0 0 0 2.702-2.503l37.135-35.802a14.336 14.336 0 0 1 20.29 0.378 14.377 14.377 0 0 1 4.01 9.97V677.982c0 53.167 43.043 96.256 96.133 96.256h2.87c53.095 0 96.134-43.094 96.134-96.256v-87.047a95.618 95.618 0 0 0 44.484 10.904h2.865c44.116 0 81.292-29.755 92.604-70.317a95.597 95.597 0 0 0 48.008 12.85h2.87c40.578 0 75.281-25.168 89.387-60.766a95.592 95.592 0 0 0 51.226 14.79zM317.21-0.83a198.457 198.457 0 0 1 160.47-81.736h198.977c109.652 0 198.544 89.009 198.544 198.804V402.141c0 28.064-22.727 50.817-50.756 50.817h-2.87c-28.029 0-50.75-22.753-50.75-50.817v-102.007c0-26.098-39.107-26.098-39.107 0V448.111c0 28.07-22.727 50.822-50.755 50.822h-2.87c-28.03 0-50.751-22.753-50.751-50.817v-113.503c0-26.098-39.106-26.098-39.106 0V505.578c0 28.069-22.728 50.822-50.756 50.822h-2.87c-28.029 0-50.75-22.753-50.75-50.817v-136.491c0-26.098-39.107-26.098-39.107 0V677.977c0 28.07-22.727 50.828-50.756 50.828h-2.87c-28.028 0-50.75-22.758-50.75-50.823v-329.237a59.84 59.84 0 0 0-16.701-41.481c-22.88-23.795-60.7-24.51-84.458-1.599l-37.135 35.807a46.808 46.808 0 0 1-67.518-2.625l-9.055-10.194a49.438 49.438 0 0 1-3.003-61.895L317.21-0.83z m268.845 700.202a22.983 22.983 0 0 0-45.965 0c0 83.207-67.457 150.663-150.664 150.663s-150.663-67.456-150.663-150.663a22.983 22.983 0 1 0-45.965 0C192.798 807.967 280.831 896 389.426 896s196.629-88.033 196.629-196.628z"  horiz-adv-x="1024" />

    
    <glyph glyph-name="qiyong" unicode="&#58927;" d="M854.1 415.9H350.5V616c0 87.3 71 158.3 158.3 158.3 87.3 0 158.3-71 158.3-158.3 0-30 24.3-54.4 54.4-54.4s54.4 24.3 54.4 54.4c0 147.3-119.8 267.1-267.1 267.1s-267-119.9-267-267.1v-200.1h-78.2c-29.9 0-54.4-24.5-54.4-54.4v-423.2c0-29.9 24.5-54.4 54.4-54.4h690.5c29.9 0 54.4 24.5 54.4 54.4V361.6c0 29.9-24.5 54.3-54.4 54.3zM553.8 156.6v-102c0-24.3-19.9-44.2-44.2-44.2H508c-24.3 0-44.2 19.9-44.2 44.2v102c-21.3 14.4-35.3 38.8-35.3 66.5 0 44.4 36 80.3 80.3 80.3 44.4 0 80.3-36 80.3-80.3 0.1-27.6-13.9-52-35.3-66.5z m0 0"  horiz-adv-x="1024" />

    
    <glyph glyph-name="shenheliucheng" unicode="&#58928;" d="M682.667 810.667H341.333A42.667 42.667 0 0 1 298.667 768v-170.667a42.667 42.667 0 0 1 42.666-42.666h341.334a42.667 42.667 0 0 1 42.666 42.666V768a42.667 42.667 0 0 1-42.666 42.667zM640 640H384v85.333h256z m42.667-128H341.333a42.667 42.667 0 0 1-42.666-42.667v-170.666A42.667 42.667 0 0 1 341.333 256h341.334a42.667 42.667 0 0 1 42.666 42.667V469.333A42.667 42.667 0 0 1 682.667 512zM640 341.333H384v85.334h256z m42.667-128H341.333a42.667 42.667 0 0 1-42.666-42.666V0a42.667 42.667 0 0 1 42.666-42.667h341.334A42.667 42.667 0 0 1 725.333 0V170.667a42.667 42.667 0 0 1-42.666 42.666zM640 42.667H384V128h256z m298.667 384h-11.094a165.12 165.12 0 0 1 53.76 118.613c0 112.64-64 180.053-170.666 180.053a42.667 42.667 0 0 1 0-85.333c39.68 0 85.333-10.667 85.333-94.72a87.467 87.467 0 0 0-42.667-69.12V512A42.667 42.667 0 0 1 768 512v-128a42.667 42.667 0 0 1 42.667-42.667h128a42.667 42.667 0 0 1 0 85.334z m-725.334-85.334a42.667 42.667 0 0 1 0 85.334c-106.666 0-170.666-67.414-170.666-180.054A165.12 165.12 0 0 1 96.427 128H85.333a42.667 42.667 0 0 1 0-85.333h128A42.667 42.667 0 0 1 256 85.333v128a42.667 42.667 0 0 1-85.333 0v-35.84A87.467 87.467 0 0 0 128 246.613c0 84.054 45.653 94.72 85.333 94.72z"  horiz-adv-x="1024" />

    
    <glyph glyph-name="tijiao" unicode="&#58929;" d="M414.273-128a19.761 19.761 0 0 0-19.741 20.488l8.762 237.514a19.75 19.75 0 0 0 4.203 11.471l503.44 641.372-822.36-475.187 249.41-129.274c9.688-5.022 13.472-16.947 8.45-26.635-5.023-9.688-16.946-13.472-26.635-8.45L38.362 289.175a19.758 19.758 0 1 0-0.793 34.65L969.914 862.564a19.76 19.76 0 0 0 29.505-19.455L890.247-69.588a19.759 19.759 0 0 0-28.849-15.125l-252.05 133.144-181.52-171.053a19.754 19.754 0 0 0-13.555-5.378z m28.276 250.126l-6.748-182.936 156.73 147.693a19.761 19.761 0 0 0 22.781 3.091l239.112-126.31 96.41 806.007L442.55 122.126z"  horiz-adv-x="1024" />

    
    <glyph glyph-name="shenhe" unicode="&#58930;" d="M831.02-4.23H192.98c-16.48 0-29.84 13.36-29.84 29.84s13.36 29.84 29.84 29.84h638.05c16.48 0 29.84-13.36 29.84-29.84s-13.36-29.84-29.85-29.84z m-0.06 118.73h-636.6c-16.48 0-29.84 13.36-29.84 29.84V249.86c0 52.18 42.43 94.63 94.58 94.63h120.6c-1.62 31.43-12.35 81.8-22 92.95-31.94 41.09-49.35 88.7-51.38 138.95-0.17 54.98 22.38 106.98 61.88 143.77 38.87 36.22 91.38 55.03 144.52 51.67 52.71 3.41 104.95-15.2 143.77-51.05 39.42-36.4 62.21-87.94 62.53-141.4-1.89-51.77-19.31-99.61-50.38-139.62-10.39-12.15-21.2-62.36-22.99-93.79h120.58c52.15 0 94.58-42.45 94.58-94.62v-107.02c-0.01-16.48-13.37-29.83-29.85-29.83zM224.2 174.18h576.91v77.18c0 19.26-15.66 34.94-34.9 34.94H625.25c-9.72 0-18.84 4.74-24.43 12.7-8.29 11.81-13.43 25.73-14.9 40.24-0.13 1.27-0.17 2.55-0.14 3.85 0.54 18.83 8.77 101.96 36.64 134.42 22.44 28.95 35.52 64.9 36.93 102.82-0.24 35.71-16.04 71.4-43.35 96.62-27.24 25.15-63.97 37.96-101.05 35.23-1.48-0.12-2.95-0.11-4.43-0.01-37.21 2.87-74.35-10.24-101.64-35.66-27.37-25.51-43-61.53-42.9-98.83 1.5-36.64 14.59-72.43 37.84-102.41 27.31-31.46 35.26-114.92 35.71-133.83 0.03-1.09-0.01-2.19-0.1-3.27-1.25-14.47-6.42-28.54-14.96-40.68a29.876 29.876 0 0 0-24.41-12.67H259.11c-19.24 0-34.9-15.68-34.9-34.95v-75.69z"  horiz-adv-x="1024" />

    
    <glyph glyph-name="daochuwenjian" unicode="&#58909;" d="M512 73.6H214.4V694.4h326.4v-272h272V384h64v86.4l-288 288H150.4v-752H512v67.2z m60.8 611.2l230.4-230.4H572.8V684.8zM729.6 342.4l-48-44.8L704 272l70.4-67.2h-240v-64h240L704 73.6l-22.4-22.4 48-48L896 172.8z"  horiz-adv-x="1024" />

    
    <glyph glyph-name="tingyong" unicode="&#58912;" d="M850.6 413.9h-78v197c0 0.6 0.3 1 0.3 1.6 0 0.7-0.1 1.4-0.1 2.1 0.2 1.6 0.4 3.2 0.5 4.8h-0.7c-3.7 143-120.8 258.2-264.7 258.2-146.2 0-265.1-118.9-265.1-265.1v-198.6h-77.6c-29.7 0-54-24.3-54-54v-420c0-29.7 24.3-54 54-54h685.3c29.7 0 54 24.3 54 54V360c0.1 29.6-24.2 53.9-53.9 53.9zM350.8 612.5c0 86.7 70.5 157.1 157.2 157.1 85.9 0 155.8-69.4 156.9-155.1 0-0.7-0.1-1.4-0.1-2v-198.6h-314V612.5z m201.8-455.9v-101.2c0-24.1-19.7-43.8-43.8-43.8h-1.7c-24.1 0-43.8 19.7-43.8 43.8V156.6c-21.2 14.3-35.1 38.6-35.1 66 0 44 35.7 79.7 79.7 79.7s79.7-35.7 79.7-79.7c0-27.5-13.9-51.7-35-66z"  horiz-adv-x="1024" />

    
    <glyph glyph-name="shezhi" unicode="&#58913;" d="M595.84-64H428.32A52.48 52.48 0 0 0 376-18.56l-13.2 92.16a340.16 340.16 0 0 0-46.08 26.64l-88.96-35.44a53.28 53.28 0 0 0-64.48 24L80 232a52.96 52.96 0 0 0 12.96 67.92l74.4 57.76c-0.8 9.52-1.2 18.16-1.2 26.4s0 16.96 1.2 26.4l-74.24 57.68A52.64 52.64 0 0 0 80 536l83.68 144a52.56 52.56 0 0 0 64.8 22.88l88-35.2a351.28 351.28 0 0 0 46 26.64l13.52 92.8A52.32 52.32 0 0 0 428.32 832h167.52A52.48 52.48 0 0 0 648 786.56l13.44-92.16a339.68 339.68 0 0 0 46.08-26.64l88.88 35.44a53.2 53.2 0 0 0 64.48-24L944 536a52.96 52.96 0 0 0-12.96-67.92l-74.4-57.76c0.72-8 1.2-17.04 1.2-26.48s-0.48-18.32-1.2-26.48l74.24-57.68a52.8 52.8 0 0 0 13.44-67.28L860.48 88a52.56 52.56 0 0 0-64.8-22.88l-88 35.2a351.04 351.04 0 0 0-46-26.64L648-19.12A52.32 52.32 0 0 0 595.84-64z m-11.2 53.92z m-145.2 0.48z m-1.36 9.6h148.08l17.04 118.4 16.96 6.88a288 288 0 0 1 64 36.8l14.32 10.72 112-44.56 74 127.2-94.8 73.6 2.24 18.08a253.76 253.76 0 0 1 0 73.6l-2.24 18.08 94.8 73.6L809.92 640l-112-44.64-14.4 11.04a272.64 272.64 0 0 1-63.44 36.56l-16.88 6.64L586.16 768H438.08l-17.12-118.4-16.96-6.88a288.56 288.56 0 0 1-64-36.8l-14.08-10.72L214.24 640l-74-127.2 94.8-73.6-2.24-18.08a293.04 293.04 0 0 1-2.72-36.8 293.04 293.04 0 0 1 2.72-36.8l2.24-18.08-94.8-73.6 74-127.84 112 44.64 14.4-11.04a272.8 272.8 0 0 1 63.44-36.56l16.96-6.88z m367.04 120v-0.48z m-586.32 0.56zM135.36 504zM805.2 648z m-585.84 0.64v-0.48zM584.72 778z m-145.12 0.56zM512 206.4A177.6 177.6 0 1 0 690.64 384 178.32 178.32 0 0 0 512 206.4z m0 291.2A113.6 113.6 0 1 1 626.64 384 114.24 114.24 0 0 1 512 497.6z"  horiz-adv-x="1024" />

    
    <glyph glyph-name="lishijilu" unicode="&#58914;" d="M880.2 539.2c21.1-49.3 31.8-101 31.8-155.2 0-54.1-10.6-105.9-31.8-155.2-21.1-49.3-49.6-91.8-85.4-127.6s-78.3-64.2-127.6-85.4C617.9-5.3 566.2-16 512-16c-59.7 0-116.4 12.6-170.3 37.8-53.7 25.2-99.6 60.7-137.4 106.5-2.4 3.5-3.6 7.3-3.4 11.7s1.6 7.9 4.4 10.6l71.3 71.8c3.5 3.2 7.8 4.7 13 4.7 5.6-0.7 9.5-2.7 11.9-6.2 25.3-33 56.4-58.5 93.2-76.6s75.9-27 117.2-27c36.1 0 70.5 7 103.4 21.1 32.9 14 61.2 33.1 85.1 57.1 24 24 42.9 52.3 57.1 85.1 14 32.9 21.1 67.2 21.1 103.4s-7 70.5-21.1 103.4-33.1 61.2-57.1 85.1c-24 24-52.3 42.9-85.1 57.1-32.9 14-67.2 21.1-103.4 21.1-34.1 0-66.7-6.1-97.9-18.5-31.2-12.4-59-29.9-83.3-52.9l71.3-71.8c10.7-10.4 13.1-22.3 7.3-35.9-5.9-13.9-16.1-20.8-30.8-20.8H145.3c-9 0-16.9 3.3-23.4 9.9-6.6 6.6-9.9 14.3-9.9 23.4V717.3c0 14.6 6.9 24.9 20.8 30.8 13.6 5.9 25.5 3.5 35.9-7.3l67.7-67.1c37.1 35 79.6 62.2 127.4 81.5 47.7 19.3 97.1 28.9 148.2 28.9 54.1 0 105.9-10.6 155.2-31.8s91.8-49.6 127.6-85.4c35.7-35.8 64.2-78.3 85.4-127.7zM578.7 534v-233.3c0-4.8-1.5-8.9-4.7-11.9-3.2-3.2-7.1-4.7-11.9-4.7H395.4c-4.8 0-8.9 1.5-11.9 4.7-3.2 3.2-4.7 7.1-4.7 11.9V334c0 4.8 1.5 8.9 4.7 11.9 3.2 3.2 7.1 4.7 11.9 4.7H512V534c0 4.8 1.5 8.9 4.7 11.9 3.2 3.2 7.1 4.7 11.9 4.7H562c4.8 0 8.9-1.5 11.9-4.7 3.2-3 4.8-7 4.8-11.9z"  horiz-adv-x="1024" />

    
    <glyph glyph-name="quanxian" unicode="&#58915;" d="M768 479.086c43.886 43.885 43.886 109.714 0 153.6C724.114 676.57 650.971 676.57 607.086 640s-43.886-109.714 0-153.6S724.114 435.2 768 479.086z m-109.714 51.2c-14.629 14.628-14.629 36.571 0 51.2 14.628 14.628 36.571 14.628 51.2 0 14.628-14.629 14.628-36.572 0-51.2s-36.572-14.629-51.2 0z m-512-563.2c-14.629-14.629-36.572-14.629-51.2 0s-14.629 36.571 0 51.2l387.657 387.657-14.629 21.943C409.6 530.286 424.23 654.629 504.686 742.4c102.4 102.4 263.314 102.4 358.4 0s102.4-263.314 0-358.4c-80.457-87.771-204.8-102.4-307.2-43.886l-21.943 14.629-160.914-160.914 80.457-80.458c14.628-14.628 36.571-14.628 51.2 0 14.628 14.629 14.628 36.572 0 51.2l-21.943 29.258 65.828 65.828c124.343-58.514 277.943-36.571 373.029 65.829 131.657 131.657 131.657 336.457 0 468.114s-336.457 124.343-468.114 0C358.4 691.2 329.143 544.914 387.657 420.571L36.571 69.486c-43.885-43.886-43.885-109.715 0-153.6 43.886-43.886 109.715-43.886 153.6 0l80.458 80.457-51.2 43.886-73.143-73.143z m307.2 51.2L321.829 149.943l-51.2-58.514L402.286-40.23c14.628-14.628 36.571-14.628 51.2 0 14.628 21.943 14.628 43.886 0 58.515z"  horiz-adv-x="1024" />

    
    <glyph glyph-name="chaxun" unicode="&#58904;" d="M933.602 64.53L721.175 278.738c-2.472 2.479-5.204 4.372-7.813 6.435 35.884 55.518 56.836 121.647 56.836 192.878 0 195.694-157.298 354.31-351.461 354.31-194.054 0-351.461-158.616-351.461-354.31 0-195.722 157.407-354.302 351.461-354.302 70.631 0 136.303 21.179 191.459 57.361 2.009-2.692 3.852-5.369 6.283-7.827l212.454-214.235c14.506-14.579 33.396-21.849 52.314-21.849 18.932 0 37.836 7.268 52.328 21.814 28.861 29.163 28.861 76.377 0.027 105.517m-514.865 171.1c-132.562 0-240.468 108.767-240.468 242.421 0 133.634 107.907 242.428 240.468 242.428 132.561 0 240.467-108.794 240.467-242.428 0-133.653-107.906-242.421-240.467-242.421"  horiz-adv-x="1024" />

    
    <glyph glyph-name="baozhuang1" unicode="&#58898;" d="M479.09789 891.600019l420.220149-209.273078a40.702821 40.702821 0 0 0 21.241907-35.762842v-525.549686c0-17.045925-10.064956-31.013863-25.14589-36.597839l-416.307166-208.429082c-11.176951-5.592975-24.584892-5.032978-35.201845 0L24.226893 86.363566a38.49983 38.49983 0 0 0-21.792904 34.641847h-0.275999V646.555099c0 17.045925 10.901952 31.014863 25.429888 37.158836L443.897045 891.592019C455.623993 897.459994 468.480937 897.459994 479.09789 891.600019zM322.071582 743.235673L671.327043 568.326443l140.256383 69.577694-349.81546 174.899229-139.696384-69.569693zM111.961507 637.904137L461.767966 462.995907l157.026309 79.073652-349.530461 174.623231-157.302307-78.788653z m-30.729865-37.167837v-454.869996l356.51143-179.096211V422.202087L81.231642 600.7363z m404.010221-633.966207l357.080427 179.096211V600.7363C723.289814 541.501561 604.265339 481.712825 485.241863 422.202087v-455.430994z"  horiz-adv-x="1025" />

    
    <glyph glyph-name="baojiadan" unicode="&#58901;" d="M746.667-10.667H277.333c-40.533 0-74.666 34.134-74.666 76.8V723.2c0 42.667 34.133 76.8 74.666 76.8h341.334l204.8-204.8v-529.067c-2.134-42.666-36.267-76.8-76.8-76.8z m-469.334 768c-17.066 0-32-14.933-32-34.133v-657.067c0-19.2 14.934-34.133 32-34.133h469.334c17.066 0 32 14.933 32 34.133v512l-179.2 179.2H277.333zM800 565.333H635.733c-27.733 0-49.066 23.467-49.066 53.334v160h42.666v-160c0-6.4 4.267-10.667 6.4-10.667H800v-42.667zM680.533 377.6H554.667c-12.8 0-21.334 8.533-21.334 21.333s8.534 21.334 21.334 21.334h125.866c12.8 0 21.334-8.534 21.334-21.334S691.2 377.6 680.533 377.6z m0-128H343.467c-12.8 0-21.334 8.533-21.334 21.333s8.534 21.334 21.334 21.334h337.066c12.8 0 21.334-8.534 21.334-21.334S691.2 249.6 680.533 249.6z m0-128H343.467c-12.8 0-21.334 8.533-21.334 21.333s8.534 21.334 21.334 21.334h337.066c12.8 0 21.334-8.534 21.334-21.334S691.2 121.6 680.533 121.6z m-275.2 401.067c-6.4 0-10.666 2.133-14.933 6.4l-64 64c-8.533 8.533-8.533 21.333 0 29.866s21.333 8.534 29.867 0l64-64c8.533-8.533 8.533-21.333 0-29.866-4.267-4.267-8.534-6.4-14.934-6.4zM405.333 522.667c-6.4 0-10.666 2.133-14.933 6.4-8.533 8.533-8.533 21.333 0 29.866l64 64c8.533 8.534 21.333 8.534 29.867 0s8.533-21.333 0-29.866l-64-64c-4.267-4.267-8.534-6.4-14.934-6.4zM480 501.333H330.667c-12.8 0-21.334 8.534-21.334 21.334S317.867 544 330.667 544H480c12.8 0 21.333-8.533 21.333-21.333S492.8 501.333 480 501.333z m0-74.666H330.667c-12.8 0-21.334 8.533-21.334 21.333s8.534 21.333 21.334 21.333H480c12.8 0 21.333-8.533 21.333-21.333S492.8 426.667 480 426.667zM405.333 352c-12.8 0-21.333 8.533-21.333 21.333v160c0 12.8 8.533 21.334 21.333 21.334s21.334-8.534 21.334-21.334v-160c0-12.8-8.534-21.333-21.334-21.333z"  horiz-adv-x="1024" />

    
    <glyph glyph-name="ERP_shouye" unicode="&#58894;" d="M991.573 420.978L551.253 831.716c-21.049 22.186-56.889 22.186-77.937 0L32.426 420.978c-32.995-34.134-8.533-89.885 39.254-89.885h60.302v-378.31c0-26.17 24.462-47.787 50.631-47.787h256V188.302h141.654v-283.306h261.12c26.169 0 45.51 21.617 45.51 47.786V331.093h65.992c46.649 0 71.111 55.751 38.684 89.885z m-155.875-44.374v-426.097h-209.92V188.302c0 26.17-17.636 46.08-43.236 46.08H440.89c-26.169 0-48.356-19.91-48.356-46.08v-237.795H176.356V376.604H64.853L512 799.858l447.147-423.254h-123.45z"  horiz-adv-x="1024" />

    
    <glyph glyph-name="ERP_shanchu" unicode="&#58895;" d="M966.656 714.752H693.76l0.512 113.152c0 14.848-12.288 27.136-27.136 27.136h-309.76c-14.848 0-27.136-12.288-27.136-27.136l-0.512-113.152H56.832c-14.848 0-27.136-12.288-27.136-27.136s12.288-27.136 27.136-27.136h75.264v-722.944c0-14.848 12.288-27.136 27.136-27.136h705.024c14.848 0 27.136 12.288 27.136 27.136V660.48h75.264c14.848 0 27.136 12.288 27.136 27.136s-12.288 27.136-27.136 27.136zM384.512 800.768H640l-0.512-86.016H384l0.512 86.016z m452.096-836.096h-650.24V660.48h650.24v-695.808zM323.584 89.088c14.848 0 27.136 12.288 27.136 27.136V507.392c0 14.848-12.288 27.136-27.136 27.136s-27.136-12.288-27.136-27.136v-391.168c0-14.848 12.288-27.136 27.136-27.136z m181.76 0c14.848 0 27.136 12.288 27.136 27.136V507.392c0 14.848-12.288 27.136-27.136 27.136s-27.136-12.288-27.136-27.136v-391.168c0-14.848 12.288-27.136 27.136-27.136z m182.272 0c14.848 0 27.136 12.288 27.136 27.136V507.392c0 14.848-12.288 27.136-27.136 27.136s-27.136-12.288-27.136-27.136v-391.168c0-14.848 11.776-27.136 27.136-27.136z"  horiz-adv-x="1024" />

    
    <glyph glyph-name="ERP_bianji" unicode="&#58893;" d="M857.6-92.672H166.912c-30.72 0-59.904 12.288-81.408 33.792C64-37.376 51.712-8.192 51.712 22.528v691.2c0 63.488 52.224 120.832 115.712 120.832h463.36v-57.856h-463.36c-31.744 0-58.368-30.72-58.368-62.464v-691.2c0-31.744 25.6-57.344 57.344-57.344h690.688c31.744 0 62.976 26.624 62.976 58.368V486.4h57.856v-463.36c0.512-63.488-56.832-115.712-120.32-115.712z m-344.064 279.04c-8.192-8.192-18.944-12.8-29.696-14.848L231.936 47.104c-28.16-13.312-51.2 12.288-40.448 40.448l124.416 251.904c2.048 10.752 6.144 21.504 14.848 29.696l447.488 448c22.528 22.528 58.88 22.528 81.408 0l101.888-101.888c10.752-10.752 16.896-25.6 16.896-40.96s-6.144-29.696-16.896-40.96l-448-446.976z m-267.264-64c-6.656-13.312 6.144-27.136 20.48-20.48L422.4 196.096l-81.92 81.92-94.208-155.648z m144.896 185.856l60.928-60.928 20.48-20.48L798.208 552.96l-102.4 100.864-325.12-325.12 20.48-20.48z m508.928 387.072l-60.928 60.928c-5.632 5.632-12.8 8.704-20.48 8.704s-14.848-3.072-20.48-8.704l-59.392-59.392 100.352-103.424 60.928 60.928c11.264 11.264 11.264 29.696 0 40.96z m0 0z"  horiz-adv-x="1024" />

    
    <glyph glyph-name="baozhuang" unicode="&#58892;" d="M479.09789 891.600019l420.220149-209.273078a40.702821 40.702821 0 0 0 21.241907-35.762842v-525.549686c0-17.045925-10.064956-31.013863-25.14589-36.597839l-416.307166-208.429082c-11.176951-5.592975-24.584892-5.032978-35.201845 0L24.226893 86.363566a38.49983 38.49983 0 0 0-21.792904 34.641847h-0.275999V646.555099c0 17.045925 10.901952 31.014863 25.429888 37.158836L443.897045 891.592019C455.623993 897.459994 468.480937 897.459994 479.09789 891.600019zM322.071582 743.235673L671.327043 568.326443l140.256383 69.577694-349.81546 174.899229-139.696384-69.569693zM111.961507 637.904137L461.767966 462.995907l157.026309 79.073652-349.530461 174.623231-157.302307-78.788653z m-30.729865-37.167837v-454.869996l356.51143-179.096211V422.202087L81.231642 600.7363z m404.010221-633.966207l357.080427 179.096211V600.7363C723.289814 541.501561 604.265339 481.712825 485.241863 422.202087v-455.430994z"  horiz-adv-x="1025" />

    
    <glyph glyph-name="jichuziliao" unicode="&#58891;" d="M819.659 567.709L542.142 718.568c-9.402 5.107-19.722 7.672-30.042 7.672a62.854 62.854 0 0 1-30.065-7.672l-277.56-150.943c-20.91-11.341-33.982-33.607-33.982-57.875v-292.626c0-24.246 13.071-46.512 34.003-57.895L482.034 8.39a62.831 62.831 0 0 1 30.043-7.671c10.34 0 20.64 2.564 30.064 7.671l277.538 150.901c20.912 11.405 33.984 33.65 33.984 57.917V509.834c0.001 24.246-13.072 46.512-34.004 57.875m12.655-350.502c0-16.49-8.757-31.48-22.85-39.132L531.925 27.133c-6.109-3.315-12.947-5.066-19.848-5.066-6.9 0-13.74 1.75-19.868 5.066L214.713 177.991c-14.135 7.672-22.872 22.662-22.872 39.132V509.75c0 16.49 8.736 31.481 22.83 39.154l277.539 150.9c6.128 3.337 12.988 5.087 19.89 5.087 6.88 0 13.717-1.75 19.826-5.066l277.538-150.88c14.094-7.652 22.85-22.641 22.85-39.112v-292.626zM384.046 448.872h42.699c10.173 0 21.349 11.675 21.349 21.35v42.697c0 21.6-21.224 21.266-21.35 21.35l-64.046-64.047c0-0.543-3.253-21.35 21.348-21.35M640.256 534.268H490.813c-20.912 0-21.35-21.64-21.35-21.349v-64.047c0-21.014-21.202-21.348-21.369-21.348h-64.026c-20.87 0-21.37-22.433-21.37-22.766v-190.719c0-21.473 21.64-21.348 21.37-21.348h256.188c19.723 0 21.349 21.891 21.349 21.348V512.92c0 0.792-1.626 21.35-21.35 21.35m-42.698-266.984c0-5.88-4.774-10.675-10.674-10.675H437.439c-5.9 0-10.675 4.796-10.675 10.675v0.021c0 5.9 4.775 10.654 10.675 10.654h149.444c5.9 0 10.674-4.754 10.674-10.654v-0.021z m0 64.046c0-5.878-4.774-10.675-10.674-10.675H437.439c-5.9 0-10.675 4.797-10.675 10.675v0.022c0 5.9 4.775 10.674 10.675 10.674h149.444c5.9 0 10.674-4.774 10.674-10.674v-0.022z m0 64.045c0-5.88-4.774-10.674-10.674-10.674h-85.396c-5.901 0-10.675 4.795-10.675 10.674v0.042c0 5.88 4.774 10.633 10.675 10.633h85.396c5.9 0 10.674-4.753 10.674-10.633v-0.042z"  horiz-adv-x="1024" />

    
    <glyph glyph-name="xiaoshou" unicode="&#58889;" d="M819.659 568.118l-277.517 150.86c-9.402 5.086-19.722 7.672-30.042 7.672-10.34 0-20.66-2.585-30.064-7.673l-277.56-150.943c-20.91-11.34-33.982-33.607-33.982-57.875v-292.628c0-24.247 13.071-46.513 34.004-57.896l277.538-150.838c9.402-5.108 19.722-7.672 30.042-7.672 10.34 0 20.64 2.564 30.064 7.672l277.538 150.9c20.912 11.405 33.984 33.65 33.984 57.897v292.65c0 24.224-13.073 46.491-34.005 57.874m12.655-350.524c0-16.471-8.757-31.46-22.85-39.132L531.925 27.539c-6.109-3.315-12.947-5.066-19.848-5.066-6.9 0-13.74 1.751-19.868 5.066L214.713 178.4c-14.115 7.672-22.871 22.661-22.871 39.132V510.159c0 16.49 8.756 31.481 22.83 39.133l277.538 150.92c6.128 3.337 13.01 5.088 19.89 5.088 6.88 0 13.717-1.751 19.826-5.067l277.538-150.88c14.094-7.673 22.85-22.64 22.85-39.112v-292.647zM552.128 494.107c-12.55 21.807-38.862 25.706-38.862 25.706s-83.603 13.781-89.754 14.615c-10.736 1.439-19.784-3.419-25.06-14.093-5.942-12.008-31.752-85.27-31.752-85.27-10.256-29.229 2.21-46.867 2.21-46.867L474.865 204.46s10.736-18.639 28.77-8.194l146.588 84.708c0.166-0.272 18.618 10.778 8.026 29.125l-106.12 184.008z m-91.15-54.416c-15.136-8.86-34.484-3.606-43.2 11.739-8.756 15.324-3.585 34.963 11.55 43.802 15.137 8.861 34.526 3.628 43.241-11.737 8.736-15.345 3.545-34.943-11.592-43.804"  horiz-adv-x="1024" />

    
    <glyph glyph-name="xitongshezhi" unicode="&#58890;" d="M819.659 568.118l-277.517 150.86c-9.402 5.108-19.722 7.672-30.042 7.672a62.837 62.837 0 0 1-30.064-7.673l-277.56-150.943c-20.91-11.34-33.982-33.607-33.982-57.875v-292.627c0-24.248 13.071-46.515 34.004-57.897l277.538-150.837a62.814 62.814 0 0 1 30.042-7.673c10.34 0 20.64 2.564 30.064 7.673l277.538 150.9c20.912 11.404 33.984 33.649 33.984 57.917V510.243c0 24.246-13.073 46.513-34.005 57.875m12.655-350.505c0-16.49-8.757-31.48-22.85-39.13L531.925 27.537c-6.109-3.313-12.947-5.064-19.848-5.064-6.9 0-13.74 1.751-19.868 5.064l-277.497 150.86c-14.135 7.673-22.871 22.662-22.871 39.134V510.159c0 16.492 8.736 31.481 22.83 39.154l277.538 150.9c6.128 3.337 12.988 5.088 19.89 5.088 6.88 0 13.717-1.751 19.826-5.067l277.538-150.88c14.094-7.651 22.85-22.64 22.85-39.112v-292.629zM669.736 390.178h-15.762c-7.213 0-14.886 5.628-17.034 12.55l-9.048 21.995c-3.42 6.38-2.023 15.761 3.065 20.87l11.174 11.154c5.13 5.129 5.13 13.51 0 18.638l-18.576 18.554c-5.107 5.108-13.489 5.108-18.596 0l-11.196-11.154c-5.108-5.129-14.51-6.526-20.87-3.107l-21.996 9.048c-6.858 2.147-12.55 9.8-12.55 17.055v15.76c0 7.214-5.921 13.177-13.136 13.177h-26.247c-7.256 0-13.177-5.963-13.177-13.176v-15.761c0-7.256-5.629-14.907-12.551-17.055l-21.975-9.048c-6.38-3.419-15.76-2.043-20.849 3.107l-11.216 11.154c-5.129 5.108-13.469 5.108-18.576 0l-18.576-18.555c-5.13-5.128-5.13-13.51 0-18.596l11.133-11.196c5.171-5.108 6.546-14.49 3.107-20.87l-9.05-22.016c-2.147-6.901-9.797-12.55-17.033-12.55l-15.782 0.02c-7.215 0-13.136-5.92-13.136-13.155v-26.27c0-7.213 5.921-13.154 13.136-13.154H370.2c7.235 0 14.886-5.67 16.99-12.53l9.092-22.015c3.419-6.379 2.022-15.803-3.107-20.912l-11.174-11.154c-5.088-5.129-5.088-13.467 0-18.595l18.617-18.598c5.107-5.108 13.448-5.108 18.576 0l11.216 11.196c5.067 5.087 14.47 6.484 20.807 3.044l22.017-9.05c6.922-2.166 12.551-9.82 12.551-17.033v-15.741c0-7.214 5.921-13.133 13.177-13.133h26.247c7.215 0 13.136 5.92 13.136 13.133V221.95c0 7.214 5.692 14.866 12.55 17.033l22.038 9.05c6.338 3.44 15.761 2.043 20.87-3.044l11.154-11.196c5.107-5.108 13.489-5.108 18.596 0l18.576 18.598c5.13 5.128 5.13 13.466 0 18.595l-11.174 11.154c-5.088 5.108-6.485 14.532-3.087 20.912l9.069 22.016c2.148 6.859 9.841 12.53 17.034 12.53h15.762c7.234 0 13.134 5.9 13.134 13.114v26.31c0.002 7.234-5.897 13.156-13.132 13.156M512.1 298.215c-36.277 0-65.674 29.416-65.674 65.714 0 36.256 29.397 65.652 65.674 65.652 36.297 0 65.693-29.396 65.693-65.652 0-36.298-29.397-65.714-65.693-65.714"  horiz-adv-x="1024" />

    
    <glyph glyph-name="jichu" unicode="&#58888;" d="M288 160h128V288H288v-128z m-32 192h192a32 32 0 0 0 32-32v-192a32 32 0 0 0-32-32H256a32 32 0 0 0-32 32V320a32 32 0 0 0 32 32z m352-192h128V288H608v-128z m-32 192h192a32 32 0 0 0 32-32v-192a32 32 0 0 0-32-32H576a32 32 0 0 0-32 32V320a32 32 0 0 0 32 32z m32 256v-128h128V608H608z m-32 64h192a32 32 0 0 0 32-32v-192a32 32 0 0 0-32-32H576a32 32 0 0 0-32 32V640a32 32 0 0 0 32 32zM288 480h128V608H288v-128z m-32 192h192a32 32 0 0 0 32-32v-192a32 32 0 0 0-32-32H256a32 32 0 0 0-32 32V640a32 32 0 0 0 32 32z"  horiz-adv-x="1024" />

    
    <glyph glyph-name="caigouguanli" unicode="&#58885;" d="M800 320h-32v-32h-64v32h-32v-64h-64v-32h32v-64h-32v-32h64v-64h32v32h64v-32h32v64h64v32h-32v64h32v32h-64v64z m0-160h-32v-32h-64v32h-32v64h32v32h64v-32h32v-64zM360 576c-8.832 0-16-7.168-16-16s7.168-16 16-16h472v-103.872c0-11.648-0.224-22.88-7.904-31.648-7.68-8.736-16.288-14.432-27.84-15.936L421.504 343.04c-21.44-2.816-39.936-13.888-52.96-31.168-10.816-14.368-11.968-37.6-11.04-55.584-9.024 0.96-17.376 4.416-24.608 10.176-8.608 6.848-14.368 16.096-16.576 25.44l-48.576 338.912c-1.664 11.424-7.36 21.888-16.064 29.44A47.887 47.887 0 0 1 220.256 672H168c-8.832 0-16-7.168-16-16s7.168-16 16-16h52.256c2.72 0 6.752-0.672 10.464-3.904 3.744-3.264 4.992-7.136 5.376-9.824l48.864-340.256c4.032-17.536 14.016-33.376 28.128-44.64C327.2 230.176 344.864 224 362.912 224h8.608c1.28-0.32 2.624-0.512 3.968-0.512 0.768 0 1.6 0.064 2.368 0.16 0.576 0.064 1.088 0.192 1.632 0.32h172.544c8.832 0 16 7.168 16 16s-7.168 16-16 16H389.888c-1.024 16.672 0.704 31.264 4.736 36.608 7.808 10.368 19.232 17.024 32.096 18.688l375.744 49.504c19.264 2.528 32.896 11.968 45.728 26.56 12.736 14.656 15.808 33.376 15.808 52.8V576H360zM310.016 112a1.5 1.5 0 1 1 96 0 1.5 1.5 0 1 1-96 0z"  horiz-adv-x="1024" />

    
    <glyph glyph-name="cangku" unicode="&#58886;" d="M819.659 568.139L542.142 718.977c-9.402 5.108-19.722 7.673-30.042 7.673a62.837 62.837 0 0 1-30.064-7.673l-277.56-150.943c-20.91-11.34-33.982-33.607-33.982-57.875v-292.607c0-24.268 13.071-46.535 34.004-57.897l277.538-150.857a62.814 62.814 0 0 1 30.042-7.673c10.34 0 20.64 2.564 30.064 7.673l277.538 150.92c20.912 11.383 33.984 33.628 33.984 57.895v292.63c0 24.246-13.073 46.513-34.005 57.896m12.655-350.526c0-16.49-8.757-31.48-22.85-39.13L531.925 27.537c-6.109-3.313-12.947-5.064-19.848-5.064-6.9 0-13.74 1.751-19.868 5.064L214.713 178.42c-14.135 7.651-22.871 22.64-22.871 39.131V510.16c0 16.492 8.736 31.481 22.83 39.154l277.538 150.9c6.128 3.337 12.988 5.088 19.89 5.088 6.88 0 13.717-1.751 19.826-5.045l277.538-150.901c14.094-7.651 22.85-22.64 22.85-39.112v-292.63zM661.522 555.86H533.426c-11.737 0-21.348-9.612-21.348-21.35v-128.092c0-11.738 9.612-21.349 21.348-21.349h128.096c11.738 0 21.348 9.612 21.348 21.349V534.51c0 11.738-9.61 21.35-21.348 21.35M469.38 363.721H341.285c-11.737 0-21.348-9.612-21.348-21.35V214.28c0-11.739 9.611-21.348 21.348-21.348h128.096c11.738 0 21.348 9.61 21.348 21.348V342.37c0 11.738-9.61 21.35-21.35 21.35M661.522 363.721H533.426c-11.737 0-21.348-9.612-21.348-21.35V214.28c0-11.739 9.612-21.348 21.348-21.348h128.096c11.738 0 21.348 9.61 21.348 21.348V342.37c0 11.738-9.61 21.35-21.348 21.35"  horiz-adv-x="1024" />

    
    <glyph glyph-name="cangku1" unicode="&#58887;" d="M959.956 346.181V174.75c0-9.888-2.617-19.099-7.829-27.611-5.222-8.519-12.364-14.97-21.43-19.366l-184.62-92.311c-6.87-3.844-14.701-5.77-23.488-5.77-8.796 0-16.625 1.925-23.488 5.77l-184.618 92.311c-1.1 0.554-2.06 1.1-2.884 1.649-0.557-0.547-1.514-1.093-2.886-1.649l-184.618-92.311c-6.87-3.844-14.701-5.77-23.489-5.77-8.795 0-16.625 1.925-23.488 5.77L92.5 127.773c-9.067 4.398-16.213 10.85-21.429 19.366-5.221 8.512-7.829 17.721-7.829 27.611V346.181c0 10.438 2.949 20.053 8.86 28.848 5.904 8.79 13.665 15.383 23.283 19.781l178.848 76.649V636.298c0 10.438 2.949 20.051 8.861 28.848 5.903 8.789 13.665 15.382 23.283 19.781l184.618 79.122c6.317 2.742 13.186 4.121 20.605 4.121 7.417 0 14.284-1.379 20.604-4.121l184.62-79.122c9.614-4.398 17.374-10.992 23.282-19.781 5.904-8.795 8.861-18.41 8.861-28.848v-164.837l178.848-76.649c9.891-4.398 17.721-10.992 23.488-19.781 5.767-8.796 8.654-18.411 8.654-28.849z m-659.353-63.46l166.486 71.291-166.486 71.294-166.486-71.294 166.486-71.291z m26.374-187.094l158.245 79.122V304.147l-158.245-67.583v-140.938z m184.62 464.022l181.735 77.886-181.735 77.886-181.735-77.886 181.735-77.886z m26.373-156.186l158.244 67.997V581.076L537.97 513.493v-110.029z m184.618-120.742l166.486 71.291-166.486 71.294-166.485-71.294 166.485-71.291z m26.376-187.094l158.243 79.122V304.147l-158.243-67.583v-140.938z"  horiz-adv-x="1024" />

    
    <glyph glyph-name="caigou" unicode="&#58883;" d="M819.659 568.105L542.142 718.98a62.659 62.659 0 0 1-30.042 7.669 62.624 62.624 0 0 1-30.064-7.669l-277.56-150.937c-20.91-11.358-33.982-33.614-33.982-57.87v-292.644c0-24.236 13.071-46.513 34.004-57.89l277.538-150.876a62.821 62.821 0 0 1 30.042-7.648c10.34 0 20.64 2.542 30.064 7.648L819.68 159.7c20.912 11.4 33.984 33.656 33.984 57.892V510.215c0 24.256-13.073 46.512-34.005 57.89m12.655-350.513c0-16.463-8.757-31.468-22.85-39.136L531.924 27.518c-6.109-3.293-12.947-5.043-19.848-5.043-6.9 0-13.74 1.75-19.868 5.043L214.713 178.393c-14.135 7.669-22.871 22.652-22.871 39.136V510.173c0 16.463 8.736 31.466 22.83 39.114L492.21 700.225c6.128 3.334 12.988 5.085 19.89 5.085 6.88 0 13.717-1.75 19.826-5.085L809.464 549.35c14.094-7.669 22.85-22.632 22.85-39.136v-292.622zM409.273 513.32c-3.586 14.232-14.26 21.36-24.455 21.36h-22.204s-21.307-0.667-21.307-21.34c0-20.694 21.307-21.36 21.307-21.36h21.35l37.735-170.799c4.003-16.441 17.118-21.36 27.103-21.36h169.75c9.53 0 16.888 6.69 21.767 19.568l42.219 108.093c2.21 13.775-6.797 21.798-20.974 21.798H437.71c-11.55 0-16.45 6.669-20.015 20.88l-8.423 43.16zM597.474 278.484c-23.58 0-42.698-19.13-42.698-42.7 0-23.59 19.118-42.7 42.698-42.7 23.6 0 42.699 19.11 42.699 42.7 0 23.57-19.097 42.7-42.699 42.7M469.38 278.484c-23.58 0-42.699-19.13-42.699-42.7 0-23.59 19.119-42.7 42.699-42.7s42.698 19.11 42.698 42.7c0 23.57-19.118 42.7-42.698 42.7"  horiz-adv-x="1024" />

    
    <glyph glyph-name="baobiao" unicode="&#58884;" d="M819.659 568.116L542.142 718.977c-9.402 5.109-19.722 7.673-30.042 7.673a62.837 62.837 0 0 1-30.064-7.673l-277.56-150.945c-20.91-11.34-33.982-33.608-33.982-57.876v-292.633c0-24.246 13.071-46.513 34.004-57.896l277.538-150.84a62.824 62.824 0 0 1 30.042-7.672c10.34 0 20.64 2.564 30.064 7.671L819.68 159.69c20.912 11.405 33.984 33.65 33.984 57.918V510.24c0 24.246-13.073 46.514-34.005 57.876m12.655-350.509c0-16.491-8.757-31.482-22.85-39.133L531.925 27.53c-6.109-3.314-12.947-5.066-19.848-5.066-6.9 0-13.74 1.752-19.868 5.066L214.713 178.391c-14.135 7.672-22.871 22.662-22.871 39.132V510.156c0 16.492 8.736 31.482 22.83 39.154L492.21 700.213c6.128 3.336 12.988 5.087 19.89 5.087 6.88 0 13.717-1.751 19.826-5.067l277.537-150.881c14.094-7.652 22.85-22.642 22.85-39.113v-292.632zM362.635 235.703h42.698c11.78 0 21.35 9.571 21.35 21.35V363.507c0 11.8-9.57 21.348-21.35 21.348h-42.698c-11.78 0-21.35-9.548-21.35-21.348v-106.453c0-11.78 9.57-21.35 21.35-21.35M490.729 235.703h42.699c11.78 0 21.349 9.571 21.349 21.35V513.325c0 11.801-9.57 21.35-21.35 21.35H490.73c-11.78 0-21.348-9.55-21.348-21.35v-256.272c-0.001-11.78 9.569-21.35 21.348-21.35M618.823 235.703h42.699c11.78 0 21.348 9.571 21.348 21.35V427.428c0 11.8-9.57 21.35-21.348 21.35h-42.699c-11.78 0-21.349-9.55-21.349-21.35v-170.375c0-11.78 9.57-21.35 21.35-21.35M715.332 214.438H309.7c-5.879 0-10.674-4.795-10.674-10.674 0-5.88 4.795-10.675 10.674-10.675h405.633c5.88 0 10.675 4.795 10.675 10.675 0 5.879-4.796 10.674-10.675 10.674"  horiz-adv-x="1024" />

    
    <glyph glyph-name="shengchanguanli" unicode="&#58882;" d="M270.304 412.608L512 291.776l241.696 120.832a32 32 0 1 0 28.608-57.216l-256-128a32 32 0 0 0-28.608 0l-256 128a32 32 0 0 0 28.608 57.216z m0-128L512 163.776l241.696 120.832a32 32 0 0 0 28.608-57.216l-256-128a32 32 0 0 0-28.608 0l-256 128a32 32 0 0 0 28.608 57.216zM327.584 512L512 419.776 696.448 512 512 604.224 327.552 512z m198.72 156.608l256-128a32 32 0 0 0 0-57.216l-256-128a32 32 0 0 0-28.608 0l-256 128a32 32 0 0 0 0 57.216l256 128a32 32 0 0 0 28.608 0z"  horiz-adv-x="1024" />

    
    <glyph glyph-name="xiaoshouguanli" unicode="&#58881;" d="M517.93 119.04a184.448 184.448 0 0 0-31.786 25.515l-272.81 272.768V682.667h275.54l288-288a21.333 21.333 0 1 1 30.166 30.165L514.944 716.971a21.035 21.035 0 0 1-8.917 5.034 20.736 20.736 0 0 1-10.71 3.328h-303.36A21.333 21.333 0 0 1 170.624 704v-292.267c0-1.194 0.555-2.218 0.725-3.328a21.29 21.29 0 0 1 6.144-15.573L455.98 114.389c11.818-11.861 25.002-22.4 39.04-31.36a21.248 21.248 0 0 1 29.44 6.571 21.333 21.333 0 0 1-6.528 29.44M405.333 529.792a42.667 42.667 0 1 0-85.333 0 42.667 42.667 0 0 0 85.333 0m-128 0c0-47.061 38.272-85.333 85.334-85.333S448 482.73 448 529.792s-38.272 85.333-85.333 85.333-85.334-38.272-85.334-85.333M705.75 256a64 64 0 1 1 0.043-128.043 64 64 0 0 1 0 128.043M705.75 85.333A106.752 106.752 0 0 0 599.082 192c0 58.837 47.829 106.667 106.666 106.667S812.416 250.837 812.416 192s-47.83-106.667-106.667-106.667m0 256c-82.346 0-149.333-66.986-149.333-149.333s66.987-149.333 149.333-149.333S855.083 109.653 855.083 192s-66.987 149.333-149.334 149.333"  horiz-adv-x="1024" />

    


  </font>
</defs>
</svg>
